<svg width="25" height="23" viewBox="0 0 25 23" fill="none" xmlns="http://www.w3.org/2000/svg">
<path d="M12.1519 10.9593C13.6105 10.9593 15.0094 10.3819 16.0408 9.35432C17.0722 8.32669 17.6517 6.93292 17.6517 5.47963C17.6517 4.02634 17.0722 2.63258 16.0408 1.60495C15.0094 0.577317 13.6105 0 12.1519 0C10.6932 0 9.29431 0.577317 8.2629 1.60495C7.23148 2.63258 6.65204 4.02634 6.65204 5.47963C6.65204 6.93292 7.23148 8.32669 8.2629 9.35432C9.29431 10.3819 10.6932 10.9593 12.1519 10.9593ZM12.1519 13.3668C4.83949 13.3668 0.151855 17.3872 0.151855 19.3447V23H24.1519V19.3447C24.1519 16.9775 19.714 13.3668 12.1519 13.3668Z" fill="#D9D9D9"/>
</svg>
