<svg xmlns="http://www.w3.org/2000/svg" width="23" height="25" fill="none" viewBox="0 0 23 25">
  <path fill="#D9D9D9" fill-rule="evenodd" d="M11.5 24.18c5.8 0 10.5-4.7 10.5-10.5 0-5.798-4.7-10.5-10.5-10.5C5.701 3.18 1 7.883 1 13.68c0 5.8 4.701 10.5 10.5 10.5Zm1.197-13.678c-.276-.195-.59-.396-.914-.593-1.252-.761-1.877-1.142-2.438-.72-.561.42-.612 1.303-.714 3.066-.03.499-.047.987-.047 1.426 0 .438.018.927.047 1.426.102 1.763.153 2.645.714 3.066.56.421 1.186.04 2.438-.72.324-.197.638-.399.914-.593.316-.221.66-.487 1.005-.77 1.255-1.023 1.882-1.534 1.882-2.41 0-.874-.627-1.386-1.882-2.409a18.55 18.55 0 0 0-1.005-.77ZM6.405.408a.854.854 0 0 1-.284 1.195L1.365 4.495a.907.907 0 0 1-1.23-.276.854.854 0 0 1 .284-1.195L5.176.132a.907.907 0 0 1 1.229.276Zm9.19 0a.907.907 0 0 1 1.229-.276l4.757 2.892a.853.853 0 0 1 .283 1.195.907.907 0 0 1-1.229.276L15.88 1.603a.854.854 0 0 1-.284-1.195Z" clip-rule="evenodd"/>
</svg>
