<svg width="23" height="21" viewBox="0 0 23 21" fill="none" xmlns="http://www.w3.org/2000/svg">
<g opacity="0.75">
<path d="M8.31055 10.3993C8.31055 9.91275 8.31055 9.66941 8.39004 9.47745C8.49604 9.22158 8.69936 9.01824 8.95526 8.91224C9.14718 8.83276 9.39053 8.83276 9.87711 8.83276H13.0102C13.4968 8.83276 13.7401 8.83276 13.9321 8.91224C14.188 9.01824 14.3913 9.22158 14.4973 9.47745C14.5768 9.66941 14.5768 9.91275 14.5768 10.3993C14.5768 10.8859 14.5768 11.1292 14.4973 11.3212C14.3913 11.5771 14.188 11.7804 13.9321 11.8864C13.7401 11.9659 13.4968 11.9659 13.0102 11.9659H9.87711C9.39053 11.9659 9.14718 11.9659 8.95526 11.8864C8.69936 11.7804 8.49604 11.5771 8.39004 11.3212C8.31055 11.1292 8.31055 10.8859 8.31055 10.3993Z" stroke="#125E8A" stroke-width="1.5"/>
<path d="M20.321 5.17749V11.4437C20.321 15.3823 20.321 17.3516 19.0974 18.5751C17.8739 19.7987 15.9045 19.7987 11.966 19.7987H10.9216M2.56665 5.17749V11.4437C2.56665 15.3823 2.56665 17.3516 3.79021 18.5751C4.52625 19.3112 5.53215 19.6045 7.07425 19.7213" stroke="#125E8A" stroke-width="1.5" stroke-linecap="round"/>
<path d="M11.4437 1H3.08875C2.1041 1 1.61178 1 1.30589 1.30589C1 1.61178 1 2.1041 1 3.08875C1 4.07339 1 4.56571 1.30589 4.8716C1.61178 5.17749 2.1041 5.17749 3.08875 5.17749H19.7987C20.7833 5.17749 21.2757 5.17749 21.5816 4.8716C21.8875 4.56571 21.8875 4.07339 21.8875 3.08875C21.8875 2.1041 21.8875 1.61178 21.5816 1.30589C21.2757 1 20.7833 1 19.7987 1H15.6212" stroke="#125E8A" stroke-width="1.5" stroke-linecap="round"/>
</g>
</svg>
