<svg xmlns="http://www.w3.org/2000/svg" width="19" height="21" fill="none" viewBox="0 0 19 21">
  <path stroke="#0F0F0F" stroke-linecap="round" stroke-linejoin="round" stroke-width="2" d="m7.375 10.5 4.25 4.222m0-4.222-4.25 4.222M1 4.167h17m-4.25 0-.287-.857c-.28-.83-.419-1.246-.677-1.553a2.125 2.125 0 0 0-.852-.61C11.559 1 11.118 1 10.237 1H8.763c-.881 0-1.322 0-1.697.146-.33.13-.624.34-.852.61-.258.308-.398.723-.676 1.554l-.288.857m10.625 0v10.766c0 1.774 0 2.66-.347 3.338a3.176 3.176 0 0 1-1.393 1.384c-.682.345-1.575.345-3.36.345h-2.55c-1.785 0-2.678 0-3.36-.345a3.176 3.176 0 0 1-1.393-1.384c-.347-.678-.347-1.564-.347-3.338V4.167"/>
</svg>
