<svg width="71" height="71" viewBox="0 0 71 71" fill="none" xmlns="http://www.w3.org/2000/svg">
<path opacity="0.5" d="M24.0283 52.3458C14.6447 52.3458 7.03772 44.7388 7.03772 35.3552C7.03772 25.9716 14.6447 18.3647 24.0283 18.3646L46.6823 18.3647C56.066 18.3647 63.6728 25.9716 63.6728 35.3552C63.6728 44.7389 56.066 52.3458 46.6823 52.3458L24.0283 52.3458Z" fill="white"/>
<path d="M37.5362 52.3112L33.1045 52.3111L33.8119 51.2665L33.8133 51.2644L33.8324 51.2346C33.8522 51.2035 33.8856 51.1499 33.9309 51.0742C34.0213 50.9227 34.1588 50.6823 34.328 50.3544C34.6663 49.6985 35.1313 48.6937 35.6007 47.351C36.5386 44.6679 37.4976 40.6295 37.4974 35.3214C37.4974 30.0135 36.5387 25.9746 35.6007 23.2911C35.1312 21.9484 34.6664 20.943 34.328 20.2871C34.1588 19.9591 34.0214 19.7185 33.9308 19.5671C33.8856 19.4912 33.852 19.4378 33.8323 19.4067L33.8131 19.377L33.8116 19.3748L33.1045 18.33L37.5359 18.33C37.5762 18.4052 37.6177 18.4846 37.6607 18.5679C38.073 19.3673 38.6091 20.5331 39.1405 22.0538C40.2044 25.0972 41.2476 29.5539 41.2476 35.3214C41.2474 41.0891 40.2044 45.5457 39.1406 48.5886C38.609 50.1088 38.0729 51.2746 37.6607 52.0739C37.6177 52.1569 37.5763 52.2361 37.5362 52.3112Z" fill="#125E8A"/>
</svg>
