<svg xmlns="http://www.w3.org/2000/svg" width="27" height="25" fill="none" viewBox="0 0 27 25">
  <path fill="#D9D9D9" d="M.848 7.763v11.7c0 1.503 0 2.254.408 2.82.407.565 1.12.803 2.545 1.278l1.677.559c1.968.656 2.952.984 3.942.85l.065-.008V4.809c-.162.024-.326.04-.49.045-.777.026-1.545-.23-3.081-.742-2.013-.67-3.019-1.006-3.784-.665a2.16 2.16 0 0 0-.717.516c-.565.618-.565 1.679-.565 3.8Zm25.911 9.474v-11.7c0-1.503 0-2.254-.408-2.82-.407-.565-1.12-.803-2.545-1.278L22.13.88c-1.968-.656-2.952-.984-3.942-.85a3.153 3.153 0 0 0-.065.008v20.153c.163-.024.326-.04.49-.045.777-.026 1.545.23 3.081.742 2.013.67 3.019 1.006 3.784.666a2.16 2.16 0 0 0 .717-.517c.565-.618.565-1.679.565-3.8Z" opacity=".5"/>
  <path fill="#D9D9D9" d="M9.84 4.74c-.117.028-.236.05-.355.068v20.153c.964-.149 1.827-.724 3.515-1.85l1.99-1.326c1.347-.898 2.02-1.347 2.777-1.526.117-.028.236-.05.355-.068V.038c-.964.149-1.827.724-3.515 1.85l-1.99 1.326c-1.347.898-2.02 1.347-2.777 1.526Z"/>
</svg>
