<svg width="25" height="23" viewBox="0 0 25 23" fill="none" xmlns="http://www.w3.org/2000/svg">
<path d="M12.6072 23C6.95032 23 4.12189 23 2.36454 21.3158C0.607178 19.6318 0.607178 16.9211 0.607178 11.5C0.607178 6.07884 0.607178 3.36827 2.36454 1.68414C4.12189 -1.09673e-07 6.95032 0 12.6072 0C14.2857 0 15.7152 -2.05636e-08 16.9416 0.043999C16.1107 0.954121 15.6072 2.14572 15.6072 3.45C15.6072 6.30807 18.0248 8.625 21.0072 8.625C22.3682 8.625 23.6115 8.14248 24.5612 7.34622C24.6072 8.52149 24.6072 9.89138 24.6072 11.5C24.6072 16.9211 24.6072 19.6318 22.8498 21.3158C21.0925 23 18.264 23 12.6072 23Z" fill="#D9D9D9"/>
<path d="M24.6072 3.45C24.6072 5.35538 22.9955 6.9 21.0072 6.9C19.0189 6.9 17.4072 5.35538 17.4072 3.45C17.4072 1.54462 19.0189 0 21.0072 0C22.9955 0 24.6072 1.54462 24.6072 3.45Z" fill="#D9D9D9"/>
<ellipse cx="21" cy="3.5" rx="4" ry="3.5" fill="#FE4949"/>
</svg>
