<svg xmlns="http://www.w3.org/2000/svg" width="25" height="23" fill="none" viewBox="0 0 25 23">
  <path fill="#D9D9D9" d="M12.607 23c-5.657 0-8.485 0-10.242-1.684C.607 19.632.607 16.92.607 11.5c0-5.421 0-8.132 1.758-9.816C4.122 0 6.95 0 12.607 0c1.679 0 3.108 0 4.335.044a5.033 5.033 0 0 0-1.335 3.406c0 2.858 2.418 5.175 5.4 5.175a5.516 5.516 0 0 0 3.554-1.279c.046 1.175.046 2.545.046 4.154 0 5.421 0 8.132-1.757 9.816C21.092 23 18.264 23 12.607 23Z"/>
  <path fill="#D9D9D9" d="M24.607 3.45c0 1.905-1.611 3.45-3.6 3.45-1.988 0-3.6-1.545-3.6-3.45 0-1.905 1.612-3.45 3.6-3.45s3.6 1.545 3.6 3.45Z"/>
</svg>
